<mxfile host="app.diagrams.net" modified="2024-03-24T13:54:14.118Z" agent="Mozilla/5.0 (Windows NT 10.0; Win64; x64) AppleWebKit/537.36 (KHTML, like Gecko) Chrome/120.0.0.0 YaBrowser/24.1.0.0 Safari/537.36" etag="k2LOQBcivd9X26tHqf2e" version="24.1.0" type="device">
  <diagram name="Страница — 1" id="FtPUS1i9IMriYoq3vjgM">
    <mxGraphModel dx="2288" dy="601" grid="1" gridSize="10" guides="1" tooltips="1" connect="1" arrows="1" fold="1" page="1" pageScale="1" pageWidth="827" pageHeight="1169" math="0" shadow="0">
      <root>
        <mxCell id="0" />
        <mxCell id="1" parent="0" />
        <mxCell id="h8GEneoLFtLYvwWV1Gqs-1" value="Admin" style="shape=umlActor;verticalLabelPosition=bottom;verticalAlign=top;html=1;outlineConnect=0;" parent="1" vertex="1">
          <mxGeometry x="354.5" y="20" width="30" height="60" as="geometry" />
        </mxCell>
        <mxCell id="h8GEneoLFtLYvwWV1Gqs-43" style="edgeStyle=orthogonalEdgeStyle;rounded=0;orthogonalLoop=1;jettySize=auto;html=1;entryX=1;entryY=0.5;entryDx=0;entryDy=0;" parent="1" source="h8GEneoLFtLYvwWV1Gqs-6" target="h8GEneoLFtLYvwWV1Gqs-14" edge="1">
          <mxGeometry relative="1" as="geometry">
            <Array as="points">
              <mxPoint x="620" y="530" />
            </Array>
          </mxGeometry>
        </mxCell>
        <mxCell id="h8GEneoLFtLYvwWV1Gqs-6" value="Подсистема работы с пользователями&lt;div&gt;&lt;br&gt;&lt;/div&gt;&lt;div&gt;&lt;br&gt;&lt;div&gt;&lt;br&gt;&lt;br&gt;&lt;br&gt;&lt;br&gt;&lt;br&gt;&lt;br&gt;&lt;br&gt;&lt;br&gt;&lt;br&gt;&lt;div&gt;&lt;br&gt;&lt;/div&gt;&lt;/div&gt;&lt;/div&gt;&lt;div&gt;&lt;br&gt;&lt;/div&gt;&lt;div&gt;&lt;br&gt;&lt;/div&gt;&lt;div&gt;&lt;br&gt;&lt;/div&gt;" style="rounded=1;whiteSpace=wrap;html=1;fillColor=#e1d5e7;strokeColor=#9673a6;" parent="1" vertex="1">
          <mxGeometry x="490.75" y="250" width="239" height="250" as="geometry" />
        </mxCell>
        <mxCell id="h8GEneoLFtLYvwWV1Gqs-7" value="Просмотр личной информации и настроек пользователя" style="rounded=0;whiteSpace=wrap;html=1;fillColor=#dae8fc;strokeColor=#6c8ebf;" parent="1" vertex="1">
          <mxGeometry x="510" y="280" width="200.5" height="30" as="geometry" />
        </mxCell>
        <mxCell id="h8GEneoLFtLYvwWV1Gqs-8" value="Регистрация пользователей" style="rounded=0;whiteSpace=wrap;html=1;fillColor=#dae8fc;strokeColor=#6c8ebf;" parent="1" vertex="1">
          <mxGeometry x="510.75" y="320" width="199" height="20" as="geometry" />
        </mxCell>
        <mxCell id="h8GEneoLFtLYvwWV1Gqs-9" value="Авторизация пользователей" style="rounded=0;whiteSpace=wrap;html=1;fillColor=#dae8fc;strokeColor=#6c8ebf;" parent="1" vertex="1">
          <mxGeometry x="510.75" y="350" width="199" height="20" as="geometry" />
        </mxCell>
        <mxCell id="h8GEneoLFtLYvwWV1Gqs-10" value="Отображение индивидуального прогресса" style="rounded=0;whiteSpace=wrap;html=1;fillColor=#dae8fc;strokeColor=#6c8ebf;" parent="1" vertex="1">
          <mxGeometry x="511.5" y="385" width="199" height="30" as="geometry" />
        </mxCell>
        <mxCell id="h8GEneoLFtLYvwWV1Gqs-11" value="Admin" style="shape=umlActor;verticalLabelPosition=bottom;verticalAlign=top;html=1;outlineConnect=0;" parent="1" vertex="1">
          <mxGeometry x="750" y="280" width="30" height="60" as="geometry" />
        </mxCell>
        <mxCell id="h8GEneoLFtLYvwWV1Gqs-12" value="User" style="shape=umlActor;verticalLabelPosition=bottom;verticalAlign=top;html=1;outlineConnect=0;fillColor=#f8cecc;strokeColor=#b85450;" parent="1" vertex="1">
          <mxGeometry x="750" y="370" width="30" height="60" as="geometry" />
        </mxCell>
        <mxCell id="h8GEneoLFtLYvwWV1Gqs-14" value="Подсистема поиска и просмотра&lt;div&gt;&lt;br&gt;&lt;br&gt;&lt;br&gt;&lt;br&gt;&lt;br&gt;&lt;br&gt;&lt;br&gt;&lt;br&gt;&lt;br&gt;&lt;div&gt;&lt;br&gt;&lt;/div&gt;&lt;/div&gt;&lt;div&gt;&lt;br&gt;&lt;/div&gt;&lt;div&gt;&lt;br&gt;&lt;/div&gt;" style="rounded=1;whiteSpace=wrap;html=1;fillColor=#e1d5e7;strokeColor=#9673a6;" parent="1" vertex="1">
          <mxGeometry x="248.75" y="480" width="240" height="200" as="geometry" />
        </mxCell>
        <mxCell id="h8GEneoLFtLYvwWV1Gqs-15" value="Поиск конкретного темы по ключевым словам" style="rounded=0;whiteSpace=wrap;html=1;fillColor=#dae8fc;strokeColor=#6c8ebf;" parent="1" vertex="1">
          <mxGeometry x="269.25" y="510" width="200.5" height="30" as="geometry" />
        </mxCell>
        <mxCell id="h8GEneoLFtLYvwWV1Gqs-16" value="Поиск тем по фильтрам" style="rounded=0;whiteSpace=wrap;html=1;fillColor=#dae8fc;strokeColor=#6c8ebf;" parent="1" vertex="1">
          <mxGeometry x="270" y="550" width="199" height="20" as="geometry" />
        </mxCell>
        <mxCell id="h8GEneoLFtLYvwWV1Gqs-18" value="Просмотр всех тематических разделов" style="rounded=0;whiteSpace=wrap;html=1;fillColor=#dae8fc;strokeColor=#6c8ebf;" parent="1" vertex="1">
          <mxGeometry x="269.25" y="585" width="199" height="30" as="geometry" />
        </mxCell>
        <mxCell id="h8GEneoLFtLYvwWV1Gqs-44" style="edgeStyle=orthogonalEdgeStyle;rounded=0;orthogonalLoop=1;jettySize=auto;html=1;entryX=0.5;entryY=0;entryDx=0;entryDy=0;" parent="1" source="h8GEneoLFtLYvwWV1Gqs-19" target="h8GEneoLFtLYvwWV1Gqs-6" edge="1">
          <mxGeometry relative="1" as="geometry" />
        </mxCell>
        <mxCell id="h8GEneoLFtLYvwWV1Gqs-19" value="Подсистема работы с БД&lt;br&gt;&lt;br&gt;&lt;br&gt;&lt;br&gt;&lt;br&gt;&lt;br&gt;&lt;br&gt;&lt;br&gt;&lt;br&gt;&lt;div&gt;&lt;br&gt;&lt;/div&gt;" style="rounded=1;whiteSpace=wrap;html=1;fillColor=#e1d5e7;strokeColor=#9673a6;" parent="1" vertex="1">
          <mxGeometry x="250" y="100" width="239" height="180" as="geometry" />
        </mxCell>
        <mxCell id="h8GEneoLFtLYvwWV1Gqs-20" value="Запись данных в БД" style="rounded=0;whiteSpace=wrap;html=1;fillColor=#dae8fc;strokeColor=#6c8ebf;" parent="1" vertex="1">
          <mxGeometry x="269.25" y="140" width="200.5" height="20" as="geometry" />
        </mxCell>
        <mxCell id="h8GEneoLFtLYvwWV1Gqs-21" value="Отображение данных из БД" style="rounded=0;whiteSpace=wrap;html=1;fillColor=#dae8fc;strokeColor=#6c8ebf;" parent="1" vertex="1">
          <mxGeometry x="270" y="170" width="199" height="20" as="geometry" />
        </mxCell>
        <mxCell id="h8GEneoLFtLYvwWV1Gqs-24" value="User" style="shape=umlActor;verticalLabelPosition=bottom;verticalAlign=top;html=1;outlineConnect=0;fillColor=#f8cecc;strokeColor=#b85450;" parent="1" vertex="1">
          <mxGeometry x="353.75" y="700" width="30" height="60" as="geometry" />
        </mxCell>
        <mxCell id="h8GEneoLFtLYvwWV1Gqs-25" value="Admin" style="shape=umlActor;verticalLabelPosition=bottom;verticalAlign=top;html=1;outlineConnect=0;" parent="1" vertex="1">
          <mxGeometry x="64.5" y="20" width="30" height="60" as="geometry" />
        </mxCell>
        <mxCell id="h8GEneoLFtLYvwWV1Gqs-40" style="edgeStyle=orthogonalEdgeStyle;rounded=0;orthogonalLoop=1;jettySize=auto;html=1;entryX=0;entryY=0.5;entryDx=0;entryDy=0;" parent="1" source="h8GEneoLFtLYvwWV1Gqs-26" target="h8GEneoLFtLYvwWV1Gqs-19" edge="1">
          <mxGeometry relative="1" as="geometry" />
        </mxCell>
        <mxCell id="h8GEneoLFtLYvwWV1Gqs-26" value="Подсистема обработки, хранения и поддержки БД&lt;br&gt;&lt;br&gt;&lt;br&gt;&lt;br&gt;&lt;br&gt;&lt;br&gt;&lt;br&gt;&lt;br&gt;&lt;br&gt;&lt;div&gt;&lt;br&gt;&lt;/div&gt;" style="rounded=1;whiteSpace=wrap;html=1;fillColor=#e1d5e7;strokeColor=#9673a6;" parent="1" vertex="1">
          <mxGeometry x="-40" y="100" width="239" height="180" as="geometry" />
        </mxCell>
        <mxCell id="h8GEneoLFtLYvwWV1Gqs-27" value="Сохранение резеврных копий" style="rounded=0;whiteSpace=wrap;html=1;fillColor=#dae8fc;strokeColor=#6c8ebf;" parent="1" vertex="1">
          <mxGeometry x="-20.75" y="140" width="200.5" height="20" as="geometry" />
        </mxCell>
        <mxCell id="h8GEneoLFtLYvwWV1Gqs-28" value="Сбор, анализ данных" style="rounded=0;whiteSpace=wrap;html=1;fillColor=#dae8fc;strokeColor=#6c8ebf;" parent="1" vertex="1">
          <mxGeometry x="-20" y="170" width="199" height="20" as="geometry" />
        </mxCell>
        <mxCell id="h8GEneoLFtLYvwWV1Gqs-29" value="Обеспечение актуальности" style="rounded=0;whiteSpace=wrap;html=1;fillColor=#dae8fc;strokeColor=#6c8ebf;" parent="1" vertex="1">
          <mxGeometry x="-20" y="200" width="199" height="20" as="geometry" />
        </mxCell>
        <mxCell id="h8GEneoLFtLYvwWV1Gqs-30" value="Admin" style="shape=umlActor;verticalLabelPosition=bottom;verticalAlign=top;html=1;outlineConnect=0;" parent="1" vertex="1">
          <mxGeometry x="64" y="690" width="30" height="60" as="geometry" />
        </mxCell>
        <mxCell id="h8GEneoLFtLYvwWV1Gqs-39" style="edgeStyle=orthogonalEdgeStyle;rounded=0;orthogonalLoop=1;jettySize=auto;html=1;entryX=0.5;entryY=1;entryDx=0;entryDy=0;" parent="1" source="h8GEneoLFtLYvwWV1Gqs-31" target="h8GEneoLFtLYvwWV1Gqs-26" edge="1">
          <mxGeometry relative="1" as="geometry" />
        </mxCell>
        <mxCell id="h8GEneoLFtLYvwWV1Gqs-41" style="edgeStyle=orthogonalEdgeStyle;rounded=0;orthogonalLoop=1;jettySize=auto;html=1;entryX=0.5;entryY=1;entryDx=0;entryDy=0;" parent="1" source="h8GEneoLFtLYvwWV1Gqs-31" target="h8GEneoLFtLYvwWV1Gqs-19" edge="1">
          <mxGeometry relative="1" as="geometry">
            <Array as="points">
              <mxPoint x="80" y="390" />
              <mxPoint x="370" y="390" />
            </Array>
          </mxGeometry>
        </mxCell>
        <mxCell id="h8GEneoLFtLYvwWV1Gqs-42" style="edgeStyle=orthogonalEdgeStyle;rounded=0;orthogonalLoop=1;jettySize=auto;html=1;entryX=0;entryY=0.5;entryDx=0;entryDy=0;" parent="1" source="h8GEneoLFtLYvwWV1Gqs-31" target="h8GEneoLFtLYvwWV1Gqs-14" edge="1">
          <mxGeometry relative="1" as="geometry">
            <mxPoint x="240" y="535" as="targetPoint" />
          </mxGeometry>
        </mxCell>
        <mxCell id="h8GEneoLFtLYvwWV1Gqs-31" value="Подсистема поддержки&lt;div&gt;&lt;br&gt;&lt;br&gt;&lt;br&gt;&lt;br&gt;&lt;br&gt;&lt;br&gt;&lt;br&gt;&lt;br&gt;&lt;br&gt;&lt;div&gt;&lt;br&gt;&lt;/div&gt;&lt;/div&gt;" style="rounded=1;whiteSpace=wrap;html=1;fillColor=#e1d5e7;strokeColor=#9673a6;" parent="1" vertex="1">
          <mxGeometry x="-41" y="480" width="240" height="200" as="geometry" />
        </mxCell>
        <mxCell id="h8GEneoLFtLYvwWV1Gqs-32" value="Отправка уведомлений о сбоях" style="rounded=0;whiteSpace=wrap;html=1;fillColor=#dae8fc;strokeColor=#6c8ebf;" parent="1" vertex="1">
          <mxGeometry x="-21.75" y="520" width="200.5" height="20" as="geometry" />
        </mxCell>
        <mxCell id="h8GEneoLFtLYvwWV1Gqs-33" value="Средства администрирования" style="rounded=0;whiteSpace=wrap;html=1;fillColor=#dae8fc;strokeColor=#6c8ebf;" parent="1" vertex="1">
          <mxGeometry x="-21.75" y="590" width="199" height="20" as="geometry" />
        </mxCell>
        <mxCell id="h8GEneoLFtLYvwWV1Gqs-34" value="Модели данных" style="rounded=0;whiteSpace=wrap;html=1;fillColor=#dae8fc;strokeColor=#6c8ebf;" parent="1" vertex="1">
          <mxGeometry x="-21" y="620" width="199" height="20" as="geometry" />
        </mxCell>
        <mxCell id="h8GEneoLFtLYvwWV1Gqs-35" value="Реагирование на обратную связь" style="rounded=0;whiteSpace=wrap;html=1;fillColor=#dae8fc;strokeColor=#6c8ebf;" parent="1" vertex="1">
          <mxGeometry x="-20.25" y="650" width="199" height="20" as="geometry" />
        </mxCell>
        <mxCell id="h8GEneoLFtLYvwWV1Gqs-37" style="edgeStyle=orthogonalEdgeStyle;rounded=0;orthogonalLoop=1;jettySize=auto;html=1;entryX=0;entryY=0.5;entryDx=0;entryDy=0;" parent="1" source="h8GEneoLFtLYvwWV1Gqs-36" target="h8GEneoLFtLYvwWV1Gqs-26" edge="1">
          <mxGeometry relative="1" as="geometry" />
        </mxCell>
        <mxCell id="h8GEneoLFtLYvwWV1Gqs-38" style="edgeStyle=orthogonalEdgeStyle;rounded=0;orthogonalLoop=1;jettySize=auto;html=1;entryX=0;entryY=0.5;entryDx=0;entryDy=0;" parent="1" source="h8GEneoLFtLYvwWV1Gqs-36" target="h8GEneoLFtLYvwWV1Gqs-31" edge="1">
          <mxGeometry relative="1" as="geometry" />
        </mxCell>
        <mxCell id="h8GEneoLFtLYvwWV1Gqs-36" value="Внешние системы" style="rounded=1;whiteSpace=wrap;html=1;fillColor=#ffe6cc;strokeColor=#d79b00;" parent="1" vertex="1">
          <mxGeometry x="-190" y="270" width="60" height="200" as="geometry" />
        </mxCell>
        <mxCell id="vTpIpv1N5-8G2JjDm205-1" value="Просмотр отзывов" style="rounded=0;whiteSpace=wrap;html=1;fillColor=#dae8fc;strokeColor=#6c8ebf;" parent="1" vertex="1">
          <mxGeometry x="269.25" y="630" width="199" height="20" as="geometry" />
        </mxCell>
        <mxCell id="vTpIpv1N5-8G2JjDm205-2" value="Решение математических задач и тестов" style="rounded=0;whiteSpace=wrap;html=1;fillColor=#dae8fc;strokeColor=#6c8ebf;" parent="1" vertex="1">
          <mxGeometry x="510.75" y="430" width="199" height="30" as="geometry" />
        </mxCell>
        <mxCell id="vTpIpv1N5-8G2JjDm205-3" value="Отправка обратной связи" style="rounded=0;whiteSpace=wrap;html=1;fillColor=#dae8fc;strokeColor=#6c8ebf;" parent="1" vertex="1">
          <mxGeometry x="510.75" y="470" width="199" height="20" as="geometry" />
        </mxCell>
        <mxCell id="FDj2edcNDHEndIkXZ-9Q-4" value="Оправка уведомлений об обновлениях" style="rounded=0;whiteSpace=wrap;html=1;fillColor=#dae8fc;strokeColor=#6c8ebf;" vertex="1" parent="1">
          <mxGeometry x="-21.75" y="550" width="199" height="30" as="geometry" />
        </mxCell>
      </root>
    </mxGraphModel>
  </diagram>
</mxfile>
